#!OML:ASF X:\für Bonn\!DataBase\2005_08_10_Bjorn_Final\c3d\bjorn.ASF
:FULLY-SPECIFIED
:DEGREES
197
root -23.9899 17.4944 -0.416115 -1440.32 31.0516 -5.10759
lowerback 2.05038 2.42889 1.84361
upperback 9.31578 3.57541 -3.23835
thorax 9.01209 2.1261 -4.2484
lowerneck -2.26272 5.16972 3.18828
upperneck -3.59826 6.86381 -0.801984
head -0.590601 3.4147 -0.746486
rclavicle -1.86858e-014 -1.27222e-014
rhumerus -44.4567 8.70637 -102.132
rradius 72.2989
rwrist 8.08934
rhand -27.5837 28.558
rfingers 7.12502
rthumb -0.983862 -1.41948
lclavicle -1.86858e-014 -1.27222e-014
lhumerus -40.4872 -21.4206 93.917
lradius 96.6092
lwrist -4.34855
lhand -42.4703 -17.0962
lfingers 7.12502
lthumb -15.3482 12.3142
rfemur -13.9256 -5.73551 -1.10563
rtibia 83.9747
rfoot -2.40564 10.9236
rtoes -24.1026
lfemur -19.9 -1.37178 -35.9525
ltibia 49.2985
lfoot -24.0214 2.77941
ltoes 15.432
198
root -23.8618 17.4543 -0.227355 -1440.27 31.9607 -4.93163
lowerback 2.17551 2.13267 1.43999
upperback 9.50096 3.20591 -3.3058
thorax 9.08636 1.92221 -4.12046
lowerneck -2.40676 5.2917 3.13137
upperneck -3.92558 7.03395 -0.640136
head -0.672141 3.49863 -0.689204
rclavicle 6.52014e-014 -3.33958e-014
rhumerus -45.1136 7.60318 -101.282
rradius 71.8037
rwrist 7.76486
rhand -27.3841 28.5579
rfingers 7.12502
rthumb -0.791111 -1.42037
lclavicle 6.52014e-014 -3.33958e-014
lhumerus -38.992 -21.6836 93.8225
lradius 97.752
lwrist -4.14482
lhand -42.8602 -16.5363
lfingers 7.12502
lthumb -15.7237 12.8449
rfemur -16.0842 -6.16448 -1.15928
rtibia 85.5945
rfoot -3.07936 9.99144
rtoes -23.1315
lfemur -18.7677 -1.51654 -36.2198
ltibia 49.156
lfoot -24.7258 2.10875
ltoes 15.613
199
root -23.7303 17.427 -0.0363569 -1440.32 32.8726 -4.90139
lowerback 2.27422 1.80357 1.06276
upperback 9.72698 2.7843 -3.25845
thorax 9.21629 1.68907 -3.8857
lowerneck -2.47059 5.41684 3.12246
upperneck -4.38968 7.20354 -0.779388
head -0.79699 3.58271 -0.73738
rclavicle 2.38542e-015 9.54166e-015
rhumerus -45.7319 6.88874 -100.365
rradius 71.4391
rwrist 7.48633
rhand -27.6193 28.8702
rfingers 7.12502
rthumb -1.01818 -1.10712
lclavicle 2.38542e-015 9.54166e-015
lhumerus -37.4178 -21.9303 93.8041
lradius 98.8172
lwrist -3.86801
lhand -43.3478 -16.1895
lfingers 7.12502
lthumb -16.1933 13.1541
rfemur -18.237 -6.5386 -0.968337
rtibia 86.9831
rfoot -3.69067 9.20309
rtoes -22.3537
lfemur -17.4682 -1.62267 -36.3107
ltibia 48.7787
lfoot -25.3228 1.36249
ltoes 15.938
200
root -23.5934 17.4134 0.156942 -1440.41 33.7886 -4.99474
lowerback 2.33146 1.46614 0.778221
upperback 9.92989 2.3462 -3.18966
thorax 9.35443 1.45281 -3.67986
lowerneck -2.52012 5.55202 3.21638
upperneck -4.78539 7.38097 -0.999349
head -0.896703 3.67061 -0.826217
rclavicle 1.06549e-013 -3.18055e-014
rhumerus -46.3299 6.35504 -99.4926
rradius 71.1154
rwrist 7.29142
rhand -28.1651 29.4911
rfingers 7.12502
rthumb -1.54537 -0.483066
lclavicle 1.06549e-013 -3.18055e-014
lhumerus -35.8453 -22.2153 93.781
lradius 99.7926
lwrist -3.53495
lhand -43.8079 -16.1076
lfingers 7.12502
lthumb -16.6363 13.1994
rfemur -20.4376 -6.95301 -0.588676
rtibia 88.1273
rfoot -4.26357 8.78909
rtoes -22.5833
lfemur -16.1012 -1.72649 -36.2558
ltibia 48.1857
lfoot -25.7786 0.56458
ltoes 16.4578
